<?xml version="1.0" encoding="utf-8"?>
<!-- Generator: Adobe Illustrator 24.3.0, SVG Export Plug-In . SVG Version: 6.00 Build 0)  -->
<svg version="1.1" id="Capa_1" xmlns="http://www.w3.org/2000/svg" xmlns:xlink="http://www.w3.org/1999/xlink" x="0px" y="0px"
	 viewBox="0 0 125.1 36" style="enable-background:new 0 0 125.1 36;" xml:space="preserve">
<style type="text/css">
	.st0{fill:#CB9CC6;}
	.st1{fill:#E2C5DF;}
	.st2{fill:#7B3A7D;}
	.st3{fill:#A272AE;}
	.st4{opacity:0.3;}
	.st5{fill:#FFFFFF;}
	.st6{fill:#12100B;}
	.st7{fill:#EED9EB;}
	.st8{fill:#E1C0DC;}
	.st9{opacity:0.75;}
	.st10{opacity:0.75;fill:#E50D70;}
</style>
<g>
	<path class="st0" d="M2,21.1c0,0-0.2,3.5,4.2,3.9c4.4,0.5,3.6,1.3,8.5,0.3c4.8-0.9,9.1-1.9,9.3-2c0.2-0.2,1.7-1.1,2.2-1.3
		s3.5-0.9,4.6-1.9c1.1-1,3.7-3,4-3c0.3,0,1.1-1.6,1.5-1.8s2.7-1.7,3-2.2c0.3-0.5,0.8-1.6,0.8-2.2c-0.1-0.6-1.1-2.1-1.7-2.1
		s-2.4,4.1-3,4.5c-0.6,0.3-7.3,4.2-8,4.5c-0.8,0.3-7.6,3.2-8.7,3.5c-1,0.3-5.4,1.2-6.1,1.3c-0.7,0.1-5.9-0.1-7.1-0.4
		S2.1,20.2,2,21.1z"/>
	<path class="st0" d="M3.6,26.9c0,0,0.2,3,1.3,3.3c1.2,0.3,3.3,0.6,3.9,0.8c0.6,0.2,3.6,1.4,4.4,1s4.3-0.9,5.6-0.8s5.3-0.1,6.2-0.8
		c0.9-0.7,3.1-1.8,4.1-2.1c1-0.3,3.4-1.3,4.1-1.9c0.6-0.6,2.2-1.1,3-1.6c0.8-0.5,3.1-2.7,3.6-3.2c0.5-0.5,2.2-1.3,2.4-1.9
		c0.3-0.6,1.2-2.3,0.8-3.1c-0.5-0.8-1.7-2-1.9-1.7c-0.2,0.3-1.6,2.5-2.3,2.8c-0.6,0.2-2,1.9-1.9,2.2c0.1,0.3,0.6,1.8,0.1,2.3
		c-0.5,0.5-1.5-0.2-1.6-0.4c-0.1-0.2-1.9,0.1-2,0.3c-0.1,0.3-9.5,6.5-17.2,6.2c-7.7-0.3-9.5-0.3-10.4-1S3.7,26.3,3.6,26.9z"/>
	<path class="st1" d="M4.5,30.1c0,0,2.1,3.3,4.3,3.7c0,0,4.6,1.7,10.4,0.9c5.8-0.9,10.2-2.5,11.9-3s6.3-2.8,7.9-3.9
		c1.6-1.1,5.5-6,4.3-9.1c0,0-1.1,1.7-1.5,1.8c-0.4,0.1-2.1,1.3-2.3,1.7c-0.1,0.4-0.6,1.4-2.1,2.2c-1.5,0.8-2.1,1-2.5,1.5
		c-0.4,0.5-1.4,0.6-2.2,0.9c-0.8,0.3-0.9,1-1.7,1.3c-0.7,0.3-1.3,0.1-1.7,0.6c-0.4,0.4-2.1,0.6-2.5,0.7c-0.4,0.1-1.3,0.7-1.5,0.9
		s-0.6,0.8-1.2,0.7c-0.6-0.2-1.9,0.3-2.4,0.5c-0.5,0.2-1.2,0.1-2.1-0.1c-1-0.2-3.7,0.1-3.7,0.1s-2.8,0.4-3.4,0.6
		c-0.6,0.2-1.4,0.2-2-0.3s-1.4-0.6-1.6-0.7c-0.3-0.1-0.8-0.2-1.3-0.2c-0.5,0-1,0.1-1.2-0.1C6.3,30.4,4.8,29.7,4.5,30.1z"/>
	<path class="st2" d="M2.4,23.1c0,0,0,2.3,1.2,3s3.4,2,6.8,2.3s9.9-0.1,12.7-1s7.1-2.9,11.2-5.5c0.6-0.4,2.2,1.1,2.7,0.7
		c1.1-0.7-0.6-2.3,0.1-3.1c1.2-1.4,3.4-3,3.8-4.1c0.8-1.9-0.1-3.2-0.7-2.9c-0.6,0.3-1,1.6-2,1.8c0,0-0.8,0.5-1.2,0.5
		c-0.4-0.1-0.7,0.1-0.8,0.3c-0.1,0.2-0.4,0.7-0.6,0.8c-0.1,0.1,0,1-0.7,1.2s-1.7,0.9-2.1,1c-0.4,0.1-1.3,1.1-1.4,1.5
		s-1.8,1.2-2.2,1.4c-0.4,0.2-2.8,0.6-3.2,0.8c-0.3,0.2-1.7,0.9-2.1,1.4s-1.5,1-2.9,0.9c-1.3-0.1-3.3,0.3-4.2,0.7
		c-0.9,0.4-2.7,0.5-3.7,0.9c-1,0.4-1.5,0.4-1.9,0.3s-1.1-1-1.9-0.5C8.7,26,7,25.5,6.6,25.3c-0.4-0.2-2.8-1.4-3.4-1.5
		S2.6,23,2.4,23.1z"/>
	<path class="st3" d="M20.5,29.4c0,0,0.4,0.3,0.4,0.6c0,0.4,0.8,0.2,1.1,0.1c0.3-0.2,1.6-0.8,2-0.6s-0.4-0.4-1-0.3
		C23,29.2,20.7,29,20.5,29.4z"/>
	<g class="st4">
		<path class="st5" d="M4.8,30.3c0.1,0.7,0.6,1.3,1,1.8c0.4,0.5,1,1,1.5,1.4c1.4,0.9,2.9,1,4.6,1c0.8,0,1.6,0,2.4,0.3
			c0.8,0.2,1.5,0.5,2.4,0.4c0.8,0,1.5-0.2,2.2-0.3c0.4-0.1,0.8-0.1,1.2-0.1c0.4,0,0.7,0.1,1.1-0.1c0.3-0.1,0.2-0.5,0.1-0.6
			c-0.5-0.5-1.4-0.3-2.1-0.3c-0.8,0.1-1.5,0.3-2.2,0.4c-0.7,0.1-1.4,0-2.1-0.3c-0.8-0.2-1.5-0.4-2.3-0.4c-1.6,0-3.1,0.2-4.5-0.6
			c-0.6-0.4-1.1-0.8-1.6-1.3C6,31,5.6,30.4,5,30.1C4.9,30,4.7,30.2,4.8,30.3L4.8,30.3z"/>
	</g>
	<path class="st3" d="M34.5,17.5c0,0-1.3,0-2,0.1c-0.7,0.1-1.5,1-1.6,1.4c-0.1,0.4-1,1.2-1.4,1.4s-0.6,0.4-1.4,0.5
		c-0.8,0.1-2.2,0.3-2.6,1.1c0,0,0.7-0.3,1.7-0.4c1-0.1,2.2-0.3,2.4-0.6c0.2-0.3,1.4-0.6,1.6-0.9c0.2-0.3,0.6-1.3,1.2-1.6
		C33,18.3,34.3,17.8,34.5,17.5z"/>
	<g>
		<path class="st6" d="M22.8,21.4c0.1-0.1,0.2-0.1,0.3-0.1c0.1,0,0.2-0.1,0.3-0.2c0.1-0.1,0.2-0.1,0.2-0.2c0.1-0.1,0.2-0.1,0.2,0
			c0,0,0-0.1,0-0.1c0,0.1-0.1,0.2,0,0.3c0.1,0,0.1-0.1,0.2-0.1c-0.1,0-0.2,0-0.3,0.1c-0.1,0.1-0.1,0.2-0.1,0.3
			c0,0.1-0.1,0.2-0.1,0.3c-0.1,0.1-0.2,0.1-0.3,0.1c-0.1,0-0.3,0-0.4,0c-0.1,0-0.1,0-0.2,0c0,0,0,0,0,0c0,0,0,0,0,0c0,0,0,0,0,0
			C22.6,21.6,22.7,21.6,22.8,21.4c0.1,0.1,0.2,0,0.2,0c0.1-0.1,0.1-0.1,0.2-0.1c0.1,0,0-0.2-0.1-0.1c-0.1,0-0.1,0-0.2,0.1
			c-0.1,0-0.1,0-0.2,0.1c-0.1,0.1-0.2,0.1-0.4,0.2c-0.1,0-0.2,0.1-0.2,0.2c0,0.1,0,0.2,0.1,0.3c0.1,0.1,0.2,0.1,0.3,0.1
			c0.1,0,0.3,0,0.4,0c0.2,0,0.4-0.1,0.6-0.3c0.1-0.1,0.1-0.2,0.1-0.4c0-0.1,0-0.2,0.2-0.2c0.1,0,0.1-0.1,0.1-0.2c0-0.1,0-0.2,0-0.3
			c0,0,0-0.1,0-0.1c-0.1-0.1-0.2-0.1-0.3,0c-0.1,0-0.2,0.1-0.3,0.1c-0.1,0.1-0.2,0.2-0.3,0.3C22.9,21.1,22.9,21.3,22.8,21.4
			C22.8,21.4,22.8,21.4,22.8,21.4L22.8,21.4z"/>
	</g>
	<g>
		<path class="st6" d="M28,18.9c-0.1,0-0.2-0.1-0.3-0.1c-0.1,0-0.2,0-0.3,0c-0.1,0-0.1,0.1-0.1,0.1c0.1,0.3,0.3,0.5,0.5,0.6
			c0.1,0,0.1,0,0.2,0.1c0,0,0.1,0,0.1,0.1c0,0.1,0,0.1,0.1,0.2c0,0,0.1,0.1,0.2,0.1c0.1,0,0.2-0.1,0.3-0.1c0.1-0.1,0.1-0.3,0.1-0.4
			c0-0.1-0.1-0.1-0.1-0.2c0-0.1,0-0.2,0-0.2c-0.1-0.1-0.2-0.2-0.3-0.2c-0.4-0.1-0.7,0-1.1,0.2c-0.2,0.1,0,0.3,0.1,0.2
			c0.2-0.1,0.5-0.2,0.7-0.2c0.1,0,0.2,0,0.3,0c0,0,0,0.1,0,0.1c0,0.1,0,0.1,0,0.2c0,0.1,0,0.2,0,0.3c0,0,0,0-0.1,0.1c0,0,0,0,0,0
			c0,0,0,0,0,0c0,0,0,0,0-0.1c0-0.1,0-0.1-0.1-0.1c-0.1-0.1-0.2-0.1-0.3-0.1c-0.2-0.1-0.4-0.2-0.5-0.4c0,0.1,0,0.1-0.1,0.2
			c0.1,0,0.2-0.1,0.3-0.1C27.7,18.9,27.8,18.9,28,18.9C28,19,28,18.9,28,18.9L28,18.9z"/>
	</g>
	<path class="st3" d="M41.6,17.8c0,0-0.3,0.4-0.4,0.5s-0.5,0.4-0.5,0.5c0,0.1,0.1,0.7,0.4,0.7c0.3,0,0.9-0.3,1-0.4
		c0.1-0.2,0.1-0.4,0.1-0.6C42.1,18.3,41.7,17.6,41.6,17.8z"/>
	<g>
		<path class="st6" d="M33.8,24.2C33.8,24.2,33.8,24.2,33.8,24.2C33.8,24.2,33.8,24.2,33.8,24.2c0-0.1-0.2-0.1-0.3-0.1
			c-0.1,0-0.3,0.1-0.4,0.1c-0.3,0.1-0.5,0.3-0.8,0.4c-0.1,0.1-0.1,0.3,0,0.3c0.2,0.1,0.5,0.1,0.7,0c0.1,0,0.2,0,0.3-0.1
			c0.1,0,0.1,0,0.2,0.1c0.1,0.1,0.2,0.2,0.4,0.2c0.1,0,0.3-0.1,0.4-0.1c0.2-0.2,0.2-0.5,0.1-0.7c-0.1-0.1-0.2-0.2-0.4-0.3
			c-0.1,0-0.3-0.1-0.5,0c-0.1,0-0.1,0.1-0.1,0.2c0,0.1,0.1,0.1,0.2,0.1c0.1,0,0.2,0,0.3,0c0.1,0,0.2,0.1,0.2,0.2
			c0,0.1,0,0.1-0.1,0.2c0,0-0.1,0-0.1,0c0,0-0.1,0-0.1-0.1c-0.2-0.2-0.4-0.1-0.7-0.1c-0.2,0-0.4,0.1-0.6,0.1c0,0.1,0,0.2,0,0.3
			c0.2-0.1,0.5-0.2,0.7-0.4c0.1-0.1,0.2-0.1,0.3-0.2C33.6,24.4,33.7,24.4,33.8,24.2C33.7,24.3,33.7,24.3,33.8,24.2
			C33.7,24.3,33.7,24.3,33.8,24.2C33.8,24.3,33.8,24.3,33.8,24.2L33.8,24.2z"/>
	</g>
	<path class="st3" d="M27.1,27.3c0,0-0.6,0.5-0.4,0.6c0.2,0.1,0.7,0.2,0.9,0.1c0.2-0.1,0.5-0.2,0.3-0.5S27.4,27.2,27.1,27.3z"/>
	<path class="st3" d="M29.6,27c0,0,1.2,0.2,1.6,0s0.7-0.4,0.7-0.4s-0.2-0.4-0.7-0.2C30.6,26.5,29.2,26.6,29.6,27z"/>
	<path class="st3" d="M25.1,29.5c0,0,0.1-0.4,0.3-0.5c0.3-0.1,0.3-0.5,0.1-0.6c-0.2-0.1-0.3,0.1-0.5,0.2c-0.2,0.1-0.8,0.7-0.6,1
		C24.8,29.8,25,29.6,25.1,29.5z"/>
	<path class="st3" d="M4.4,27.2c0,0,0.4,1.2,2.8,1.7s6.8,0.7,7.4,0.6c0.6-0.1,5.6-0.6,7.7-1.1c2.1-0.5,7.1-2.4,8-3.4
		c0,0-7.8,3.4-12.2,3.5C13.8,28.7,6.9,29.1,4.4,27.2z"/>
	<path class="st7" d="M8.5,8.1c0,0-7.9,5.8-7.6,10.2s7.8,5.2,15.3,4c0,0,5-1.7,6.7-2.6c2.1-1.1,6.6-2.7,7.9-3.3
		c1.3-0.6,5.9-4.1,6.6-7.7s-3-6-7.7-6.6S23,1.7,19.1,2.9S11.2,7,8.5,8.1z"/>
	<path class="st3" d="M22.6,21.5c0,0-0.3,0.2-0.2,0.3c0.2,0.1,0.8,0.2,0.9,0.1c0.1-0.1,0.3-0.4,0.3-0.5c0-0.1,0.2-0.3,0.2-0.4
		c0.1-0.1,0.2-0.4-0.1-0.4c-0.3,0-0.5,0.3-0.6,0.4S22.8,21.4,22.6,21.5z"/>
	<path class="st3" d="M27.4,18.9c0,0,0,0.2,0.2,0.3c0.1,0.1,0.5,0.2,0.5,0.3s0.3,0.2,0.4,0.2c0.1-0.1,0.1-0.5,0.1-0.7
		c0-0.1-0.3-0.4-0.6-0.2C27.7,19,27.5,18.8,27.4,18.9z"/>
	<path class="st3" d="M37,13.7c0,0,0.8-0.5,1.1-0.5c0.3,0,0.4-0.2,0.3-0.4s-0.5-0.8-0.1-0.9c0,0-0.4-0.1-0.4,0.2s0.1,0.7-0.1,0.8
		c-0.2,0.1-0.9,0.4-0.9,0.6S37,13.7,37,13.7z"/>
	<path class="st3" d="M38.8,12.1c0,0,0.3-0.2,0.3-0.4c0-0.1-0.2-0.3-0.1-0.4s0.1-0.4,0-0.5c-0.2-0.1-0.3-0.1-0.3-0.3
		c0-0.1,0-0.2-0.1-0.2c-0.2,0.2-0.3,0.6-0.1,0.7c0.2,0.2,0.3,0.4,0.3,0.4C38.8,11.6,39,12,38.8,12.1z"/>
	<path class="st3" d="M36.1,15.4c0,0,0.5-0.8,1.3-0.5c0.4,0.2,0.7-0.3,0.8-0.4c0,0,0.6-0.5,0.7-0.6s-0.8-0.1-1.2,0.2
		s-1.1,0.4-1.6,0.3c-0.4,0-0.3,0.9-0.7,1.2c-0.5,0.3,0.2,0.6,0.2,0.5C35.8,15.9,36.1,15.8,36.1,15.4z"/>
	<path class="st8" d="M1.9,16.5c0,0-1.5,7.3,8.1,6.5c8.7-0.7,11.5-2.5,12.8-3.1c1.3-0.6,5.7-2.9,6.3-3.1c0.6-0.1-5.2,1.2-8.4,2.9
		c-2.5,1.3-9.5,2.1-12.7,1.2c-2.2-0.7-6.2-2.9-5.7-5.7L1.9,16.5z"/>
	<path class="st3" d="M33.3,24.3c0,0-0.9,0.2-0.7,0.4c0.2,0.2,1.2,0.3,1.4,0.2s0.4-0.3,0.3-0.4C34.2,24.3,33.6,24.1,33.3,24.3z"/>
	<path class="st3" d="M38.8,21c0,0,0.2,0,0.3-0.1c0.1-0.1,0.2-0.5,0-0.8c-0.3-0.3,0-0.7,0.1-0.7c0.1,0,0.5-0.5,0.5-0.5
		c0-0.1-0.2-0.2-0.4,0c-0.2,0.2-1,0.7-0.7,1C38.8,20.3,39,20.9,38.8,21z"/>
	<path class="st3" d="M2.7,21.9c0,0.1-0.2,0.6-0.2,0.9s0.3,0.7,0.5,0.7s0.8,0.1,0.8,0.2c0,0.1,0.3,0.4,0.3,0.2
		C4.1,23.6,4,23.1,3.7,23s-0.8-0.3-0.7-0.6C3,22.2,2.8,21.7,2.7,21.9z"/>
	<path class="st3" d="M6.9,23.8c0,0-0.2,0.4-0.1,0.6c0,0.2,0.4,0.4,0.5,0.4c0.1,0,0.5,0.2,0.5,0c0-0.2,0-0.5-0.1-0.6
		C7.6,24.2,7.1,23.7,6.9,23.8z"/>
	<path class="st3" d="M10.4,24.3c0,0,0,0.3,0.2,0.4c0.2,0.1,0.6,0.1,0.7,0.2s0.3,0.1,0.4,0.1c0-0.1,0.2-0.2,0.1-0.4s-0.6,0-0.7-0.2
		C11,24.1,10.5,24.1,10.4,24.3z"/>
	<path class="st3" d="M13,24.5c0,0-0.3,0.5-0.1,0.5c0.2,0,0.7-0.3,0.7-0.4c0.1-0.1,0.3-0.2,0-0.3C13.2,24.3,13.1,24.4,13,24.5z"/>
	<path class="st3" d="M18.3,23.7c0,0,0.3-0.4,0.6-0.4c0.3,0,0.6,0,0.6-0.2c0-0.2-1.1-0.2-1.2,0.1S18,23.8,18.3,23.7z"/>
	<path class="st3" d="M20.2,22.5c0,0,0.3,0.3,0.8,0.1s0.8-0.4,0.8-0.5c0-0.1-0.1,0-0.5,0c-0.3,0-0.7,0.3-0.9,0.1
		C20.1,21.9,20.1,22.4,20.2,22.5z"/>
	<path class="st3" d="M29,17.3c0,0,0.5,0.4,0.9,0.3c0.4-0.1,0.5-0.5,0.8-0.5c0.2,0,0.4-0.1,0.5-0.3c0-0.2,0.1-0.3,0.2-0.4
		c0.1-0.1-0.4-0.2-0.5,0c-0.1,0.2-0.5,0.6-0.8,0.6S29,17,29,17.3z"/>
	<path class="st3" d="M33.6,17.1c0,0,1.1-0.3,1.2-0.5s0.1-0.3,0-0.4c-0.1-0.1-0.3-0.5-0.5-0.2s0.1,0.4,0,0.5
		C34.1,16.6,33.2,16.9,33.6,17.1z"/>
	<path class="st3" d="M33.5,15.9c0,0,0.2,0.1,0.2,0c0-0.1-0.1-0.3,0.3-0.5s0.4-0.5,0-0.4S33.3,15.5,33.5,15.9z"/>
	<path class="st3" d="M19.4,24.1c-0.1,0,0.7-0.8,1.6-0.7c0.9,0.1,2,0.1,2.4-0.5c0.4-0.6,2.8-1.3,3-1.3s-2.3,1.8-3.4,2.1
		C22.9,23.7,20,23.9,19.4,24.1z"/>
	<path class="st3" d="M11.5,26c0.1,0-0.5,0-0.7-0.2s-0.8-0.9-1.7-0.7c-0.9,0.2-0.8,0.7-1,0.7c0,0,1.1-0.4,1.6-0.2S10.8,26.3,11.5,26
		z"/>
	<g>
		<path class="st6" d="M4.8,23.6c0,0,0.1-0.1,0.1-0.1c0,0,0,0,0,0c0,0,0,0,0,0c0,0,0,0,0,0c0,0,0,0,0,0c0,0,0,0,0.1,0c0,0,0,0,0,0
			c0,0,0,0,0,0c0,0,0,0,0,0c0,0,0,0,0,0c0,0,0,0,0.1,0c0,0,0,0,0,0c0,0,0,0,0,0c0,0,0,0,0,0c0,0,0.1,0,0.1,0c0,0,0,0,0.1,0
			c0,0,0.1,0,0.1,0.1c0,0,0,0,0,0c0,0,0,0,0,0c0,0,0,0,0,0c-0.1,0-0.1,0-0.2,0c-0.1,0-0.2,0-0.3,0C4.9,23.4,4.8,23.4,4.8,23.6
			c-0.1-0.1-0.1,0-0.1,0c0,0.1,0.1,0.1,0.1,0.1c0.1,0,0.1,0,0.2,0c0.1,0,0.1,0,0.1-0.1c0,0,0.1,0,0.1,0c0,0,0.1,0,0.1,0
			c0,0,0.1,0,0.1,0c0,0,0.1,0,0.1,0c0.1,0,0.1-0.1,0.1-0.2c0-0.1,0-0.1-0.1-0.2c-0.1-0.1-0.1-0.1-0.2-0.1c-0.1,0-0.3,0-0.4,0.1
			c-0.1,0.1-0.3,0.2-0.3,0.4C4.7,23.6,4.7,23.6,4.8,23.6L4.8,23.6z"/>
	</g>
	<path class="st3" d="M4.7,28.6c0,0-0.1,0.2-0.2,0.3s-0.1,0.5,0,0.5c0.1,0.1,0.4,0.2,0.5,0.1c0.2-0.1,0.2-0.3,0.1-0.4
		S4.8,28.6,4.7,28.6z"/>
	<path class="st3" d="M6.5,29.3c0,0,0.1,0.5,0.5,0.5s1.1,0,1.1,0s0.6,0,0.3-0.4c-0.3-0.4-0.8-0.2-1-0.1C7.2,29.4,6.5,29,6.5,29.3z"
		/>
	<path class="st3" d="M11,30.1c0,0-0.1,0.4,0.2,0.6c0.3,0.2,1,0.3,1.1,0.2c0.1-0.2,0.3-0.3,0-0.6c0,0-0.3-0.2-0.5-0.1
		c0,0-0.4,0.1-0.5,0C11.1,30,11,30,11,30.1z"/>
	<path class="st3" d="M4.9,23.2c0,0-0.3,0.3-0.2,0.3c0.2,0,0.6,0,0.7-0.1c0.1-0.1-0.1-0.3-0.3-0.3S4.9,23.2,4.9,23.2z"/>
	<g>
		<path class="st6" d="M16.5,29.9c0.1,0.1,0.1,0.2,0.3,0.3c0.1,0.1,0.3,0.2,0.4,0.2c0.3,0,0.7-0.1,0.8-0.5c0-0.2,0-0.4-0.2-0.5
			c-0.1-0.1-0.3-0.1-0.4-0.1c-0.2,0-0.4,0.1-0.5,0.1c0,0-0.1,0-0.1,0c0,0-0.1,0-0.1,0c-0.1,0-0.2,0.1-0.2,0.1
			c-0.1,0.1,0,0.3,0.1,0.4c0.1,0.1,0.3,0.2,0.5,0.1c0.1,0,0.1-0.1,0-0.1C16.8,30,16.7,30,16.5,29.9C16.6,29.9,16.5,29.9,16.5,29.9
			c0-0.1,0-0.1,0-0.1c0,0,0.1,0,0.1,0c0,0,0,0,0.1,0c0,0,0.1,0,0.1,0c0.1,0,0.3,0,0.4,0c0,0,0.1,0,0.1,0c0,0,0,0,0.1,0c0,0,0,0,0,0
			c0,0,0,0,0,0c0,0,0,0,0,0c0,0,0,0,0,0c0,0,0,0,0,0c0,0,0,0,0,0c0,0,0,0,0,0c0,0,0,0,0,0c0,0,0,0,0,0c0,0,0,0,0,0c0,0,0,0,0,0
			c0,0,0,0,0,0c0,0,0,0,0,0c0,0,0,0,0,0c0,0,0,0,0,0c0,0,0,0,0,0c0,0,0,0,0,0c0,0,0,0,0,0c0,0,0,0-0.1,0c0,0-0.1,0,0,0
			c0,0-0.1,0-0.1,0c0,0-0.1,0-0.1,0c0,0,0,0,0,0c0,0-0.1,0,0,0c-0.1,0-0.1,0-0.2,0c-0.1,0-0.2-0.1-0.3-0.2
			C16.6,29.8,16.5,29.8,16.5,29.9L16.5,29.9z"/>
	</g>
	<path class="st3" d="M16.9,29.6c0,0-0.5,0.1-0.5,0.2c0,0.2,0.3,0.2,0.3,0.3c0.1,0.1,0.8,0.2,0.9,0s0.3-0.4,0-0.5
		C17.3,29.5,17,29.6,16.9,29.6z"/>
	<g>
		<path class="st6" d="M38.9,20.9c0.1,0,0.2,0,0.3-0.1c0.1-0.1,0.2-0.2,0.2-0.3c0-0.1,0-0.2,0-0.3c0-0.1,0-0.1-0.1-0.2
			c0-0.1-0.1-0.1-0.1-0.2c0,0,0-0.1,0-0.2c0,0,0-0.1,0-0.1c0,0,0-0.1,0-0.1c0,0,0,0,0,0c0,0,0,0,0.1,0c0.1,0,0.1-0.1,0.2-0.1
			c0.1-0.1,0.2-0.2,0.2-0.3c0,0,0-0.1,0-0.1c0,0,0-0.1,0-0.1c0,0,0-0.1,0-0.1c0,0-0.1-0.1-0.1-0.1c0,0,0,0,0,0
			c0,0.1-0.1,0.1-0.2,0.1c0,0,0,0.1-0.1,0.1c0,0,0,0,0-0.1c0,0-0.1,0.1-0.1,0.1c0,0,0,0.1,0,0.1c-0.1,0.1-0.2,0.1-0.3,0.1
			c-0.2,0.2-0.1,0.5,0,0.6c0,0,0,0.1,0.1,0.1c0,0,0.1,0.1,0.1,0.1c0.1,0.1,0.1,0.2,0.1,0.3c0,0.1-0.1,0.2-0.2,0.3
			C38.9,20.8,38.8,20.9,38.9,20.9L38.9,20.9z"/>
	</g>
	<path class="st3" d="M35.7,23c0,0,0.5-0.1,0.7,0.1c0.2,0.1,0.6-0.2,0.8-0.4c0.3-0.2,0.6-0.8,0.2-0.6c-0.4,0.2-0.7,0.7-0.9,0.7
		C36.3,22.8,35.7,22.9,35.7,23z"/>
	<g class="st4">
		<path class="st5" d="M8.9,27.2C8.9,27.2,8.9,27.2,8.9,27.2C8.9,27.2,8.9,27.2,8.9,27.2L8.9,27.2z"/>
	</g>
	<g class="st9">
		<path class="st5" d="M3,24.4c0,0.7,0.7,1.1,1.3,1.3c0.8,0.4,1.6,0.8,2.5,1.1c0.9,0.3,1.8,0.5,2.6,0.6c0.5,0.1,0.9,0.1,1.4,0.1
			c0.3,0,0.9,0.1,1.1-0.2c0,0,0-0.1,0-0.1c-0.2-0.2-0.6-0.2-0.8-0.2c-0.4,0-0.8,0-1.3-0.1c-0.8-0.1-1.7-0.2-2.5-0.4
			C6.5,26.3,5.7,26,5,25.7C4.3,25.4,3.5,25,3,24.4C3,24.3,3,24.3,3,24.4L3,24.4z"/>
	</g>
	<g class="st9">
		<path class="st5" d="M13.2,27.4C13.2,27.4,13.2,27.4,13.2,27.4C13.1,27.4,13.1,27.4,13.2,27.4C13.1,27.4,13.2,27.4,13.2,27.4
			C13.2,27.4,13.2,27.4,13.2,27.4c0,0,0.1-0.1,0.1-0.1C13.3,27.3,13.3,27.3,13.2,27.4c0.1-0.1,0.1-0.1,0.2-0.1c0,0,0,0-0.1,0
			c0,0,0.1,0,0.1,0c0,0,0,0,0.1,0c0.1,0,0.1-0.1,0.1-0.2c0,0-0.1,0.1-0.1,0.1c0,0,0,0,0,0c0.1,0,0.1-0.1,0.1-0.1
			c0-0.1,0-0.1-0.1-0.1c0,0,0,0,0,0c0,0,0,0,0.1,0.1c0-0.1-0.1-0.1-0.2-0.1c-0.1,0-0.1,0-0.1,0c0,0,0,0,0,0c-0.1,0-0.1,0-0.2,0.1
			c-0.1,0.1-0.2,0.2-0.2,0.3c0,0.1,0,0.1,0,0.2c0,0.1,0.1,0.1,0.1,0.1c0.1,0,0.1,0,0.2,0C13,27.5,13.1,27.5,13.2,27.4
			C13.1,27.5,13.1,27.4,13.2,27.4L13.2,27.4z"/>
	</g>
	<g>
		<path class="st6" d="M2.2,23.4c-0.2,2,1.4,3.7,3.1,4.5c1.1,0.5,2.3,0.7,3.4,0.9c1.1,0.2,2.2,0.3,3.3,0.3c4.5,0.2,9.1-0.4,13.5-1.9
			c1.2-0.4,2.4-0.8,3.5-1.4c1.1-0.5,2.5-1,3.4-1.9c0.3-0.2,0.2-0.9-0.3-0.8c-1,0.3-1.9,0.9-2.8,1.3c-1,0.4-1.9,0.9-2.9,1.2
			c-2,0.7-4.1,1.3-6.2,1.7c-2.1,0.4-4.2,0.6-6.4,0.6c-2.2,0-4.4-0.1-6.5-0.5c-2.1-0.5-4.5-1.7-4.9-4C2.3,23.3,2.2,23.3,2.2,23.4
			L2.2,23.4z"/>
	</g>
	<g>
		<path class="st6" d="M26.5,26.1c0.3-0.1,0.6-0.1,0.8-0.1c0.3-0.1,0.6-0.1,0.8-0.2c0.6-0.2,1.1-0.4,1.6-0.6c1-0.4,2.1-0.9,3-1.6
			c0.5-0.3,0.9-0.6,1.4-1c0.2-0.2,0.5-0.4,0.7-0.6c0,0,0.1-0.1,0.1-0.1c-0.5,0-0.6,0-0.4,0.1c-0.1,0-0.1,0,0,0c0,0,0.1,0,0.1,0.1
			c0.5,0.4,0.9,0.9,1.4,1.2c0.7,0.5,1.6,0,1.9-0.7c0.3-0.8,0.2-1.7,0-2.5c-0.1-0.2-0.1-0.5-0.2-0.7c0,0-0.1-0.2,0-0.2
			c0,0.1-0.1,0.2-0.1,0.4c0.1-0.1,0.2-0.1,0.2-0.2c0.5-0.4,0.9-0.8,1.3-1.2c0.7-0.7,1.6-1.3,2.2-2.1c0.6-0.8,0.8-1.7,0.6-2.7
			c-0.2-0.8-0.7-1.8-1.6-1.8c-0.4,0-0.8,0.7-0.3,0.9c0.6,0.3,0.9,1,0.9,1.6c0.1,0.8-0.2,1.2-0.8,1.7c-0.8,0.6-1.5,1.2-2.2,1.9
			c-0.4,0.4-0.9,0.7-1.2,1.1c-0.3,0.4-0.3,0.8-0.2,1.3c0.1,0.7,0.5,1.4,0.3,2.2c0-0.1,0,0.2,0,0.1c-0.1-0.1,0.2-0.2,0.2-0.2
			c0,0,0.1-0.1,0.1-0.1c0,0,0,0,0,0c0,0,0.1,0.1,0,0c-0.2-0.2-0.4-0.3-0.6-0.5c-0.4-0.3-0.8-0.8-1.3-0.9c-0.5-0.1-0.8,0.3-1.1,0.6
			c-0.4,0.4-0.8,0.7-1.3,1c-0.9,0.7-2,1.4-3,2c-0.5,0.3-1.1,0.6-1.6,0.9c-0.3,0.1-0.5,0.3-0.8,0.4c-0.3,0.2-0.6,0.4-0.9,0.5
			C26.5,26,26.5,26.1,26.5,26.1L26.5,26.1z"/>
	</g>
	<g>
		<path class="st6" d="M6.9,24.3c0,0.2,0.1,0.5,0.3,0.6c0.1,0,0.2,0,0.2,0c0.1,0,0.1,0.1,0.2,0.1c0.1,0,0.2,0,0.2,0
			C8,25,8,24.9,8.1,24.8c0.1-0.2,0-0.4-0.1-0.5c-0.1-0.1-0.2-0.3-0.4-0.4c0,0,0,0-0.1,0c0,0,0,0,0,0c0,0-0.1-0.1-0.1-0.1
			c-0.1,0-0.1-0.1-0.2-0.1c-0.1,0-0.1,0-0.2,0c-0.1,0-0.1,0.1-0.1,0.2c0,0.2-0.1,0.4,0,0.6c0,0.1,0.1,0.1,0.1,0.2c0,0,0,0.1,0.1,0.1
			c0,0,0.1,0.1,0.1,0.1c0.1,0,0.2-0.1,0.1-0.2c0,0-0.1,0-0.1-0.1c0,0,0,0-0.1,0C7,24.5,6.9,24.4,6.9,24.3c0-0.1,0.1-0.3,0.1-0.5
			c0,0,0,0,0,0c0,0,0.1,0,0.1,0c0,0,0.1,0.1,0.1,0.1c0,0,0.1,0.1,0.1,0.1c0.1,0.1,0.1,0.2,0.2,0.2c0.1,0.1,0.1,0.2,0.2,0.2
			c0,0,0,0.1,0.1,0.1c0,0,0,0,0,0.1c0,0,0,0,0,0c0,0,0,0,0,0c0,0,0,0,0,0c0,0,0,0,0,0c0,0,0,0,0,0c0,0,0,0,0,0c0,0,0.1,0,0,0
			c0,0,0,0,0,0c0,0-0.1,0-0.1,0c-0.1,0-0.1,0-0.2,0c-0.1,0-0.1,0-0.2,0C7,24.6,7,24.4,6.9,24.3C6.9,24.2,6.9,24.2,6.9,24.3L6.9,24.3
			z"/>
	</g>
	<g>
		<path class="st6" d="M10.4,24.3c0,0.1,0,0.2,0,0.3c0,0,0.1,0.1,0.1,0.1c0.1,0,0.1,0,0.2,0.1c0.1,0,0.3,0.1,0.4,0.1
			c0.1,0,0.1,0.1,0.2,0.1c0.1,0,0.1,0.1,0.2,0.1c0,0,0.1,0,0.1-0.1c0-0.1,0.1-0.3,0.1-0.4c0,0-0.1,0-0.1,0c0,0.1,0,0.2-0.1,0.3
			c0,0,0.1,0,0.1,0c-0.1-0.1-0.2-0.2-0.4-0.2c-0.1,0-0.3-0.1-0.4-0.1c-0.1,0-0.2,0-0.3,0c-0.1,0-0.1-0.2-0.1-0.3
			C10.5,24.2,10.4,24.2,10.4,24.3L10.4,24.3z"/>
	</g>
	<g>
		<path class="st6" d="M13.1,24.5C13.1,24.5,13.2,24.5,13.1,24.5c0.1,0,0.1,0,0.2,0c0.1,0,0.1,0,0.1,0c0,0,0.1,0,0.1,0
			c0,0,0.1,0,0.1,0.1c0-0.1,0-0.1,0-0.2c0,0-0.1,0-0.1,0.1c0,0,0,0-0.1,0.1c0,0,0,0,0,0c-0.1,0.1-0.1,0.1-0.2,0.1
			c-0.1,0-0.1,0.1-0.2,0.1c0,0-0.1,0-0.1,0.1c0,0-0.1,0-0.1,0c0.1,0,0.1,0,0.2,0.1c0,0,0,0,0-0.1c0,0,0,0,0,0c0,0,0,0,0,0
			c0,0,0,0,0,0c0,0,0,0,0,0c0,0,0,0,0,0c0,0,0,0,0-0.1c0,0,0-0.1,0.1-0.1c0,0,0,0,0,0C13.1,24.6,13.1,24.6,13.1,24.5
			C13.1,24.5,13.1,24.5,13.1,24.5C13.1,24.5,13.1,24.5,13.1,24.5C13.1,24.5,13.1,24.5,13.1,24.5c0.1,0,0-0.1,0-0.1
			C13,24.4,13,24.4,13.1,24.5C13,24.4,13,24.4,13.1,24.5c-0.2-0.1-0.3,0.1-0.4,0.2c0,0.1,0,0.3,0,0.4c0,0.1,0.1,0.1,0.2,0
			c0,0,0.1-0.1,0.1-0.1c0,0,0.1,0,0.1-0.1c0.1,0,0.2-0.1,0.2-0.1c0.1,0,0.1-0.1,0.2-0.1c0,0,0,0,0,0c0,0,0,0,0.1,0
			c0,0,0.1-0.1,0.1-0.1c0.1,0,0.1-0.1,0-0.2c-0.1-0.1-0.1-0.1-0.2-0.1c-0.1,0-0.1,0-0.2,0c-0.1,0-0.1,0-0.2,0
			C13.1,24.3,13.1,24.4,13.1,24.5C13.1,24.5,13.1,24.5,13.1,24.5L13.1,24.5z"/>
	</g>
	<g>
		<path class="st6" d="M2.5,21.9c-0.2,0.2-0.2,0.5-0.1,0.7c0.1,0.2,0.2,0.5,0.4,0.7c0.1,0.1,0.2,0.1,0.3,0.2c0.1,0,0.3,0,0.5,0.1
			c0.2,0,0.4,0.2,0.5,0.3c0,0.1,0.1,0,0.1,0c0-0.2-0.2-0.3-0.3-0.4c-0.1,0-0.2-0.1-0.3-0.1c-0.1,0-0.3,0-0.4,0
			c-0.2-0.1-0.4-0.4-0.4-0.6c0-0.1-0.1-0.3-0.1-0.4c0-0.1,0-0.2,0.1-0.4C2.7,21.9,2.6,21.9,2.5,21.9L2.5,21.9z"/>
	</g>
	<g>
		<path class="st6" d="M18.3,23.7C18.3,23.7,18.3,23.7,18.3,23.7C18.4,23.7,18.4,23.6,18.3,23.7c0.1-0.1,0.1-0.1,0.1-0.2
			c0,0,0,0,0,0c0,0,0,0,0,0c0,0,0,0,0,0c0,0,0.1,0,0.1-0.1c0,0,0.1,0,0.1,0c0,0,0,0,0.1,0c0,0,0,0,0,0c0,0,0,0,0,0c0,0,0.1,0,0.1,0
			c0,0,0,0,0,0c0,0,0,0,0,0c0,0,0,0,0,0c0,0,0,0,0,0c0,0,0,0,0.1,0c0,0,0,0,0,0c0.1,0,0.1,0,0.2-0.1c0-0.1,0-0.1-0.1-0.2
			c-0.1,0-0.1,0-0.2,0c0,0,0,0,0.1,0c0,0-0.1,0-0.1,0c0,0-0.1,0-0.1,0c-0.1,0-0.2,0.1-0.3,0.1c-0.1,0-0.1,0.1-0.2,0.2
			c-0.1,0.1-0.1,0.2-0.1,0.3C18.2,23.7,18.3,23.8,18.3,23.7L18.3,23.7z"/>
	</g>
	<g>
		<path class="st6" d="M20.2,22.4c0,0.2,0.2,0.2,0.3,0.3c0.2,0.1,0.3,0.1,0.5,0c0.2,0,0.3-0.1,0.5-0.2c0.1-0.1,0.3-0.2,0.4-0.4
			c0-0.1,0-0.1-0.1-0.1c-0.1,0-0.3,0.1-0.4,0.2c-0.1,0.1-0.2,0.1-0.4,0.2c-0.1,0-0.2,0-0.3,0c-0.1,0-0.1,0-0.2,0
			c-0.1,0-0.1-0.1-0.2-0.1C20.2,22.3,20.2,22.4,20.2,22.4L20.2,22.4z"/>
	</g>
	<g>
		<path class="st6" d="M28.9,17.3c0.2,0.2,0.5,0.4,0.8,0.4c0.3,0,0.6-0.2,0.8-0.4c0.1-0.1,0.2-0.2,0.3-0.2c0.1,0,0.3,0.1,0.4,0
			c0.1-0.1,0.1-0.2,0.1-0.3c0,0,0-0.1,0-0.1c0,0,0,0,0,0c0,0,0,0,0,0c0.2-0.1,0.1-0.4-0.1-0.3c-0.2,0.1-0.2,0.3-0.2,0.5
			c0,0.1-0.1,0-0.2,0c-0.1,0-0.3,0-0.4,0.1c-0.2,0.2-0.3,0.4-0.6,0.5c-0.3,0.1-0.5-0.1-0.8-0.3C28.9,17.1,28.8,17.3,28.9,17.3
			L28.9,17.3z"/>
	</g>
	<g>
		<path class="st6" d="M33.7,17.2c0.1,0,0.2-0.1,0.3-0.1c0.1,0,0.2-0.1,0.3-0.1c0.2-0.1,0.3-0.1,0.5-0.3c0.1-0.1,0.3-0.3,0.2-0.5
			c0-0.1-0.1-0.2-0.2-0.2c0,0,0,0,0,0c0,0,0,0,0,0c0,0,0,0,0,0c0,0,0-0.1,0,0c0,0,0,0,0,0c0,0,0,0,0,0c0-0.1-0.1-0.1-0.2-0.1
			c-0.1,0-0.1,0.1-0.1,0.2c0,0.1,0.1,0.2,0.2,0.3c0.1,0,0.1,0.1,0.2,0.1c0,0,0,0,0,0c0,0,0,0,0,0c0,0,0,0.1,0,0.1
			c0,0.1-0.1,0.1-0.1,0.1c-0.1,0.1-0.3,0.2-0.4,0.2c-0.2,0.1-0.4,0.1-0.6,0.2c-0.1,0-0.1,0.1-0.1,0.2C33.6,17.1,33.7,17.2,33.7,17.2
			L33.7,17.2z"/>
	</g>
	<g>
		<path class="st6" d="M33.5,15.8C33.5,15.8,33.5,15.8,33.5,15.8C33.5,15.8,33.5,15.8,33.5,15.8C33.5,15.8,33.5,15.8,33.5,15.8
			c0-0.1-0.1-0.1-0.1-0.1c0,0,0,0,0,0c0,0,0,0,0,0c0,0,0,0,0,0c0-0.1,0.1-0.1,0.1-0.2c0,0,0,0,0,0c0,0,0,0,0,0c0,0,0,0,0,0
			c0,0,0.1-0.1,0.1-0.1c0,0,0,0,0,0c0,0,0,0,0,0c0,0,0,0,0.1,0c0,0,0,0,0,0c0,0,0,0,0,0c0,0,0,0,0,0c0,0,0,0,0,0
			c0.1,0,0.2,0,0.2-0.1c0.1-0.1,0.1-0.2,0-0.2c-0.1-0.1-0.3,0-0.4,0.1c-0.1,0.1-0.2,0.1-0.2,0.2c-0.1,0.1-0.1,0.2-0.2,0.3
			c-0.1,0.1-0.1,0.2-0.1,0.3c0,0.1,0,0.1,0,0.2c0,0.1,0.1,0.1,0.2,0.1C33.5,16,33.5,15.9,33.5,15.8L33.5,15.8z"/>
	</g>
	<g>
		<path class="st6" d="M34.8,15.3c0.2,0,0.2-0.3,0-0.3C34.6,15,34.6,15.3,34.8,15.3L34.8,15.3z"/>
	</g>
	<g>
		<path class="st6" d="M37.1,13.8c0.2-0.1,0.5-0.3,0.8-0.3c0.2-0.1,0.5-0.1,0.6-0.3c0.1-0.1,0.1-0.2,0.1-0.3c0-0.2-0.1-0.3-0.2-0.4
			c0,0-0.1-0.1-0.1-0.1c0,0-0.1-0.1-0.1-0.1c0-0.1,0-0.2,0.1-0.3c0,0,0-0.1,0-0.1c-0.1,0-0.2,0-0.2,0.1c0,0.1,0,0.2,0,0.3
			c0,0,0,0.1,0,0.2c0,0.1,0.1,0.1,0.1,0.2c0.1,0.1,0.2,0.2,0.1,0.3c0,0.1-0.1,0.1-0.2,0.1c-0.1,0-0.2,0.1-0.4,0.1
			c-0.3,0.1-0.5,0.2-0.8,0.4C36.8,13.7,37,13.9,37.1,13.8L37.1,13.8z"/>
	</g>
	<g>
		<path class="st6" d="M29.3,23.7c0,0,0.1,0,0.1,0c0,0,0.1,0,0.1,0c0.1,0,0.1,0,0.2,0c0.1,0,0.1,0,0.2-0.1c0,0,0,0,0.1,0
			c0,0,0,0,0.1,0c0,0,0.1-0.1,0.1-0.1c0,0,0,0,0,0c0,0,0,0,0,0c0,0,0,0,0,0c0,0,0,0,0,0c0-0.1,0-0.1,0-0.2c0-0.1-0.1-0.1-0.2-0.1
			c0,0,0,0,0,0c0,0,0,0,0,0c0,0,0,0,0,0c0,0,0,0,0,0c-0.1,0-0.2,0-0.3,0.1c-0.1,0-0.1,0.1-0.2,0.1c0,0,0,0,0,0
			c-0.1,0-0.2,0.1-0.3,0.1c0,0,0,0.1,0,0.1C29.2,23.6,29.2,23.7,29.3,23.7L29.3,23.7z"/>
	</g>
	<g>
		<path class="st6" d="M31,22.8c0.1,0,0.1,0,0.2,0c0.1,0,0.1,0,0.2,0c-0.1,0-0.1,0-0.2,0c0,0,0,0,0.1,0c0,0,0.1,0,0.1,0
			c0,0,0.1,0,0.1,0c0,0,0,0,0.1,0c0,0,0.1-0.1,0.1-0.1c0,0,0-0.1,0-0.1c0,0,0-0.1-0.1-0.1c0,0-0.1,0-0.2,0c0,0,0,0-0.1,0
			c0,0-0.1,0-0.1,0c-0.1,0-0.1,0.1-0.1,0.1c0,0,0.1-0.1,0.1-0.1c0,0-0.1,0.1-0.1,0.1c-0.1,0-0.1,0.1-0.2,0.2
			C30.9,22.6,30.8,22.7,31,22.8C30.9,22.7,30.9,22.8,31,22.8L31,22.8z"/>
	</g>
	<g>
		<path class="st6" d="M32.2,22.1c0.1,0,0.2,0,0.3,0c0.1,0,0.1,0,0.2-0.1c0.1,0,0.2-0.1,0.2-0.2c0.1-0.1,0.1-0.1,0.1-0.2
			c0-0.1,0-0.1,0-0.2c0,0-0.1-0.1-0.2-0.1c-0.1,0-0.3,0.1-0.4,0.2c-0.1,0-0.1,0.1-0.2,0.1c-0.1,0-0.1,0.1-0.2,0.2
			C32,22,32.1,22.1,32.2,22.1L32.2,22.1z"/>
	</g>
	<g>
		<path class="st6" d="M41.2,18.2c0.1,0.2-0.1,0.2-0.2,0.2c-0.1,0-0.2,0.1-0.3,0.2c-0.1,0.2-0.2,0.4-0.1,0.6
			c0.2,0.5,0.8,0.6,1.2,0.4c0.4-0.2,0.7-0.7,0.6-1.1c0-0.1-0.1-0.2-0.1-0.3c0-0.1-0.1-0.1-0.1-0.2c0-0.1,0-0.1,0-0.2
			c-0.1-0.2-0.4-0.3-0.6-0.2C41.2,17.7,41.2,17.9,41.2,18.2c-0.1,0-0.2,0.1-0.3,0.2c-0.1,0.1-0.2,0.1-0.2,0.1c0,0,0,0.1,0,0.1
			c0.1,0.2,0.4,0.1,0.5,0c0.1-0.1,0.2-0.3,0.3-0.5c0-0.1,0.1-0.3,0.3-0.3c0.1,0,0.1,0.1,0.1,0.1c0,0.1,0.1,0.2,0.1,0.3
			c0.1,0.2,0.2,0.4,0.1,0.6c-0.1,0.2-0.2,0.3-0.4,0.4c-0.2,0.1-0.4,0.1-0.5,0.1c-0.2,0-0.3-0.1-0.3-0.3c0-0.1,0-0.2,0-0.2
			c0.1-0.1,0.2-0.1,0.3-0.2c0.1-0.1,0.2-0.1,0.2-0.2C41.2,18.3,41.2,18.2,41.2,18.2C41.2,18.2,41.2,18.2,41.2,18.2L41.2,18.2z"/>
	</g>
	<g>
		<path class="st6" d="M25.5,28.4c0,0.1,0,0.1,0,0.2c0,0,0,0.1,0,0.1c0,0.1-0.2,0.1-0.3,0.2c-0.1,0.1-0.2,0.2-0.2,0.3
			c-0.1,0.1-0.1,0.3,0,0.4c0,0,0.1,0,0.1,0c0.1,0,0.1-0.1,0.1-0.2c0-0.1,0-0.1,0.1-0.2c0.1-0.1,0.2-0.2,0.3-0.2
			c0.1-0.1,0.2-0.2,0.2-0.3c0-0.1,0-0.2-0.1-0.3C25.6,28.3,25.5,28.3,25.5,28.4L25.5,28.4z"/>
	</g>
	<g>
		<path class="st6" d="M37.6,22.3C37.6,22.3,37.6,22.3,37.6,22.3C37.5,22.3,37.5,22.3,37.6,22.3L37.6,22.3z"/>
	</g>
	<g>
		<path class="st6" d="M35.5,23.6C35.5,23.7,35.4,23.7,35.5,23.6C35.4,23.7,35.5,23.7,35.5,23.6c0,0-0.1,0-0.1,0
			c-0.1,0-0.1,0.1-0.2,0.1C35.1,23.8,35,23.9,35,24c-0.1,0.1-0.1,0.2-0.1,0.3c0,0.1,0,0.1,0,0.2c0,0.1,0,0.2,0.1,0.3
			c0.1,0,0.2,0,0.2,0c0,0,0.1-0.1,0.1-0.2c0,0,0,0,0-0.1c0,0,0,0,0-0.1c0,0,0,0,0,0c0,0,0,0,0,0c0,0,0-0.1,0-0.1c0,0,0,0,0,0
			c0,0,0,0,0,0c0,0,0-0.1,0-0.1c0,0,0-0.1,0-0.1c0,0,0,0,0,0c0,0,0,0,0,0c0,0,0,0,0,0c0,0,0,0,0-0.1c0,0,0-0.1,0.1-0.1
			c0,0,0.1-0.1,0.1-0.1C35.5,23.8,35.5,23.7,35.5,23.6C35.5,23.7,35.5,23.7,35.5,23.6C35.5,23.7,35.5,23.7,35.5,23.6
			C35.5,23.7,35.5,23.6,35.5,23.6L35.5,23.6z"/>
	</g>
	<g>
		<path class="st6" d="M31.7,26.7c-0.1-0.1-0.3-0.1-0.4-0.1c-0.1,0.1-0.2,0.1-0.2,0.2c-0.1,0.1-0.2,0.1-0.3,0.1
			c-0.2,0.1-0.4,0.1-0.6,0c-0.1,0-0.2,0-0.3,0c-0.1,0-0.1-0.1-0.2-0.1c-0.1,0-0.1,0-0.2,0c-0.2,0.1-0.2,0.3,0,0.3
			c0.1,0.1,0.2,0.1,0.4,0c0.1,0,0.2,0,0.3,0c0.2,0,0.4,0,0.6,0c0.2,0,0.4-0.1,0.5-0.2C31.3,27,31.4,26.7,31.7,26.7
			C31.7,26.7,31.7,26.7,31.7,26.7L31.7,26.7z"/>
	</g>
	<g>
		<path class="st6" d="M27,27.2c0,0-0.1,0-0.1,0.1c0,0-0.1,0.1-0.1,0.1c0,0,0,0,0.1,0c-0.2,0-0.3,0.1-0.3,0.2c0,0.1-0.1,0.1-0.1,0.2
			c0,0.1,0,0.2,0.1,0.2c0.1,0,0.1,0.1,0.2,0.1c0.1,0,0.2,0,0.3,0.1c0.2,0,0.3,0,0.5,0c0.1,0,0.3-0.1,0.4-0.2
			c0.1-0.1,0.1-0.3,0.1-0.4c-0.1-0.4-0.5-0.4-0.8-0.3c-0.2,0-0.3,0.1-0.4,0.3c0,0.1-0.1,0.1-0.1,0.2c0,0,0,0,0,0c0,0,0,0,0,0
			c0,0-0.1,0-0.1,0.1c0,0,0,0.1,0,0.1c0.1,0.1,0.2,0,0.3-0.1c0.1-0.1,0.1-0.2,0.1-0.2c0.1-0.1,0.2-0.1,0.3-0.1c0.1,0,0.3,0,0.4,0
			c0.1,0,0.2,0.1,0.2,0.2c0,0,0,0,0,0c0,0,0,0,0,0c0,0,0,0,0,0c0,0-0.1,0-0.1,0.1c-0.1,0-0.2,0.1-0.3,0.1c-0.1,0-0.3,0-0.4,0
			c-0.1,0-0.2,0-0.2,0c0,0-0.1,0-0.1,0c0,0,0,0,0,0c0,0,0,0,0,0c0.1-0.1,0.2-0.2,0.3-0.3c0,0,0,0,0-0.1C27,27.3,27,27.3,27,27.2
			C27.1,27.2,27.1,27.2,27,27.2L27,27.2z"/>
	</g>
	<g>
		<path class="st6" d="M24,29.5c-0.1-0.1-0.2-0.2-0.4-0.2c-0.2,0-0.4,0.1-0.5,0.1c-0.4,0.2-0.8,0.3-1.3,0.5
			c-0.2,0.1-0.4,0.2-0.6,0.2C21,30.1,21,30,21,29.8c0-0.2,0-0.3-0.1-0.4c-0.1-0.1-0.3-0.1-0.4,0c0,0,0,0.1,0,0.2
			c0.1,0.1,0.2,0.2,0.2,0.4c0,0.2,0,0.3,0.1,0.5c0.2,0.3,0.6,0.2,0.9,0.1c0.4-0.1,0.8-0.3,1.1-0.5c0.2-0.1,0.4-0.2,0.6-0.3
			C23.5,29.6,23.9,29.5,24,29.5C24,29.5,24,29.5,24,29.5L24,29.5z"/>
	</g>
	<g>
		<path class="st6" d="M11.9,30.1c0,0-0.1,0-0.1,0c0,0-0.1,0-0.1,0c-0.1,0-0.2-0.1-0.3-0.1c-0.1,0-0.3,0-0.4,0
			c-0.2,0.1-0.2,0.3-0.1,0.4c0.1,0.1,0.2,0.3,0.4,0.3c0.2,0.1,0.3,0.1,0.5,0.2c0.2,0,0.4,0.1,0.5,0c0.3-0.1,0.4-0.5,0.2-0.7
			c0-0.1-0.1-0.1-0.2-0.2c0,0-0.1,0-0.1-0.1c0,0-0.1,0-0.1,0c-0.2,0-0.4,0-0.5,0.1c0,0,0,0,0,0c0.1,0,0.3,0,0.4,0
			c0.1,0,0.1,0,0.2,0.1c0.1,0,0.1,0.1,0.1,0.1c0.1,0.1,0.1,0.4-0.1,0.4c-0.1,0-0.3,0-0.4,0c-0.1,0-0.2-0.1-0.4-0.1
			c-0.1-0.1-0.2-0.1-0.3-0.2c0,0,0,0-0.1-0.1c0,0,0,0,0,0c0,0,0,0,0,0c0,0,0,0,0.1,0c0.1,0,0.2,0,0.4,0
			C11.7,30.3,11.9,30.3,11.9,30.1C11.9,30.2,11.9,30.1,11.9,30.1L11.9,30.1z"/>
	</g>
	<g>
		<path class="st6" d="M6.5,29.2c-0.1,0.1,0,0.3,0.1,0.4c0.1,0.2,0.3,0.3,0.5,0.3c0.2,0,0.4-0.1,0.6-0.1c0,0,0.1,0,0.1,0
			c0,0,0,0,0.1,0c0,0,0,0,0,0c0,0,0,0,0,0c0,0,0,0,0,0c0,0,0,0,0,0c0,0,0,0,0,0c0,0,0,0,0,0c0,0,0,0,0,0c0,0,0,0,0,0c0,0,0,0,0,0
			c0,0,0,0,0,0.1c0.1,0.1,0.2,0.1,0.3,0c0.1,0,0.1-0.2,0.1-0.2c-0.1-0.2-0.3-0.3-0.5-0.3c-0.2,0-0.4,0.1-0.6,0.2
			c-0.1,0-0.2,0.1-0.3,0.1c-0.1,0-0.2,0-0.3-0.1C6.7,29.5,6.6,29.4,6.5,29.2C6.5,29.2,6.5,29.2,6.5,29.2L6.5,29.2z"/>
	</g>
	<g>
		<path class="st6" d="M4.4,28.9C4.4,28.9,4.4,29,4.4,28.9c-0.1,0.1-0.1,0.2-0.1,0.3c0,0.1,0.1,0.2,0.2,0.3c0.2,0.2,0.4,0.2,0.6,0.2
			c0.1,0,0.1-0.1,0.2-0.1c0-0.1,0-0.1,0-0.2c0-0.1-0.1-0.3-0.2-0.4c-0.1-0.1-0.1-0.2-0.2-0.3c0,0-0.1,0-0.2-0.1c-0.1,0-0.1,0-0.2,0
			c-0.1,0-0.2,0.1-0.2,0.2c0,0,0,0,0,0c0,0,0,0,0,0C4.5,28.8,4.5,28.8,4.4,28.9C4.5,28.8,4.5,28.8,4.4,28.9
			C4.4,28.9,4.4,28.9,4.4,28.9c-0.1,0.1,0,0.1,0,0.1c0.1,0,0.2-0.1,0.2-0.2c0,0,0,0,0-0.1c0,0,0,0,0,0c0,0,0,0,0,0c0,0,0,0,0,0
			c0-0.1,0.1-0.1,0.1-0.1c0.1,0,0.1,0.1,0.1,0.2c0,0,0,0.1,0.1,0.1c0,0.1,0,0.1,0.1,0.2c0,0.1,0.1,0.1,0.1,0.2c0,0,0,0,0,0
			c0,0,0,0,0,0c0,0,0,0,0,0c0,0,0,0,0,0c0,0,0,0,0,0c0,0-0.1,0-0.1,0c0,0,0,0,0,0c0,0,0,0,0,0c0,0-0.1,0-0.1,0c-0.1,0-0.1,0-0.2-0.1
			c-0.1-0.1-0.1-0.1-0.1-0.2c0,0,0-0.1,0-0.1C4.5,29,4.5,29,4.4,28.9L4.4,28.9z"/>
	</g>
	<g>
		<path class="st6" d="M3.8,30.5C3.9,30.5,3.9,30.4,3.8,30.5C3.8,30.4,3.8,30.5,3.8,30.5L3.8,30.5z"/>
	</g>
	<g>
		<path class="st6" d="M4.4,30.4c1.3,2.4,4.1,3.9,6.8,4.5c3.4,0.7,6.9,0.2,10.3-0.4c6.3-1.1,12.6-3.2,17.7-7c1.3-1,2.6-2,3.4-3.4
			c0.8-1.3,1.3-2.8,1.2-4.3c0-0.3-0.5-0.5-0.5-0.1c-0.1,1.4-0.4,2.6-1.2,3.8c-0.7,1.2-1.7,2.1-2.8,2.9c-2.4,1.8-5.2,3.2-8,4.3
			c-2.8,1.2-5.7,2.1-8.7,2.7c-3.2,0.7-6.5,1.2-9.7,0.9c-1.6-0.1-3.3-0.5-4.8-1.3c-1.4-0.7-2.6-1.7-3.5-3C4.5,30,4.4,30.2,4.4,30.4
			L4.4,30.4z"/>
	</g>
	<g>
		<path class="st6" d="M27.3,32.7c3.3-0.6,6.5-1.8,9.5-3.4c1.4-0.8,2.9-1.6,4.2-2.7c1.1-0.9,1.7-2.4,2.4-3.6
			c0.4-0.7,0.5-1.4,0.6-2.2c0-0.8,0-1.7-0.4-2.4c-0.1-0.2-0.6-0.1-0.5,0.2c0,0.7,0.2,1.3,0.2,2c0,0.7-0.1,1.4-0.4,2
			c-0.3,0.6-0.7,1.1-1,1.7c-0.3,0.6-0.7,1.2-1.2,1.7c-0.5,0.5-1.2,0.9-1.9,1.3c-0.7,0.4-1.3,0.8-2,1.2c-1.4,0.8-2.9,1.5-4.4,2.1
			c-1.7,0.7-3.4,1.3-5.1,1.8C27.2,32.6,27.2,32.7,27.3,32.7L27.3,32.7z"/>
	</g>
	<g>
		<path class="st6" d="M1.3,16.8c-0.4,0.9-0.5,2,0,2.9c0.4,0.9,1.1,1.7,1.9,2.2c1.9,1.3,4.4,1.5,6.6,1.5c5-0.1,9.8-1.8,14.4-3.8
			c2.4-1,4.7-2.1,7.1-3.2c2.1-1,4.1-2.1,5.6-3.8c0.7-0.9,1.3-1.9,1.6-2.9c0.4-1.1,0.4-2.2-0.1-3.3c-0.8-1.8-2.8-3-4.5-3.7
			C29.8,1,25.2,1.1,21,2.2c-2.3,0.6-4.6,1.5-6.7,2.6C12.1,5.8,10,7.1,8,8.5c-2,1.4-3.8,3.1-5.3,5c-1.2,1.6-2.3,3.9-1.6,5.9
			c0.7,2,2.9,3.1,4.8,3.4c2.5,0.5,5.1,0.1,7.6-0.3c5-0.9,9.7-2.6,14.3-4.7c2.2-0.9,4.3-2,6.2-3.4c0.9-0.7,1.8-1.5,2.6-2.3
			c0.7-0.7,1.4-1.5,1.8-2.5c0.4-0.9,0.4-1.9,0.2-2.8C38.5,6.6,37,7,37.1,7.3c0.6,2-0.5,3.7-1.9,5.1C33.6,14,32,15.3,30,16.3
			c-2,1.1-4.1,1.9-6.2,2.8c-2.1,0.8-4.3,1.6-6.5,2.2c-2.2,0.6-4.5,1-6.8,1.2c-2.2,0.2-4.5,0-6.3-1.3c-1.7-1.2-2.2-3.2-1.6-5.2
			c0.7-2,2.2-3.8,3.8-5.3C8.1,9.1,10,7.8,12,6.6c1.9-1.1,3.9-2.2,5.9-3c3.8-1.5,8-2.1,12-1.2c1.8,0.4,3.6,1.1,5.1,2.3
			c0.8,0.6,1.4,1.2,1.8,2.1c0.5,1.1,0.5,2.2,0.1,3.3c-0.7,2-2.1,3.6-3.9,4.7c-1.9,1.2-4.1,2.1-6.2,3c-4.1,1.9-8.3,3.9-12.9,4.6
			c-3.8,0.7-9.5,0.7-11.5-3.3c-0.4-0.8-0.7-1.7-0.5-2.6C2.1,16.5,1.3,16.6,1.3,16.8L1.3,16.8z"/>
	</g>
	<g>
		<path class="st6" d="M11.2,23c0.7,0,1.3-0.1,2-0.2c0.8-0.1,1.5-0.3,2.3-0.5c0.8-0.2,1.5-0.4,2.3-0.6c0.7-0.2,1.4-0.3,2-0.6
			c0.2-0.1,0-0.1-0.1-0.1c-0.7,0.1-1.3,0.3-2,0.5c-0.7,0.2-1.4,0.4-2.1,0.5C14.2,22.4,12.7,22.6,11.2,23C11.3,23,11.2,23,11.2,23
			L11.2,23z"/>
	</g>
	<g>
		<path class="st6" d="M35.1,26.2C35.2,26.2,35.2,26.2,35.1,26.2C35.1,26.2,35.1,26.2,35.1,26.2L35.1,26.2z"/>
	</g>
	<g>
		<path class="st6" d="M35.5,16.5c-0.6,0.8-1.7,0.9-2.5,1.5c-0.6,0.4-1.2,1-1.7,1.5c-0.8,0.7-1.6,1.2-2.6,1.6
			c-0.6,0.2-1.3,0.3-1.9,0.5c-0.6,0.2-1.1,0.4-1.7,0.8c-1.2,0.7-2.4,1.1-3.8,1.3c-1.4,0.2-2.9,0.5-4.3,0.8c-1.4,0.3-2.8,0.6-4.2,0.9
			c-0.7,0.1-1.4,0.1-2.1,0c-0.7-0.1-1.3,0-2,0c-1.5,0-2.9-0.5-4.2-1.2c-0.3-0.2-0.6-0.4-0.9-0.5c-0.3-0.2-0.7-0.3-0.9-0.6
			c-0.3-0.3-0.3-0.8-0.4-1.2c0-0.4-0.1-0.8-0.2-1.2c-0.1-0.2-0.4-0.2-0.4,0.1c0,0.7,0,1.5,0.1,2.2c0.1,0.6,0.7,0.9,1.2,1.2
			c1.1,0.7,2.4,1.4,3.7,1.8c1.4,0.4,2.8,0.1,4.2,0.3c1.5,0.2,2.9-0.2,4.4-0.5c1.5-0.3,3-0.7,4.5-1c0.8-0.2,1.5-0.4,2.2-0.5
			c0.7-0.1,1.4-0.3,2-0.6c0.6-0.3,1.2-0.6,1.8-1c0.6-0.4,1.3-0.6,2-0.7c1.1-0.2,2.2-0.7,3.2-1.4c0.8-0.6,1.4-1.3,2.2-1.9
			c0.4-0.3,0.9-0.6,1.4-0.8c0.5-0.3,1-0.6,1.1-1.1C35.7,16.5,35.6,16.4,35.5,16.5L35.5,16.5z"/>
	</g>
	<g>
		<path class="st6" d="M35.2,17.1c0.3-0.4,0.6-0.8,1-1.1c0.4-0.3,0.8-0.6,1.2-0.9c0.8-0.5,1.7-0.9,2.4-1.6c0.7-0.7,1.1-1.5,0.9-2.5
			c-0.1-0.5-0.3-0.9-0.5-1.4c-0.3-0.5-0.6-1-1.1-1.3c-0.2-0.1-1,0-0.9,0.4c0.1,0.4,0.6,0.8,0.9,1.2c0.3,0.4,0.5,0.9,0.6,1.4
			c0.2,1-0.4,1.8-1.2,2.4c-0.7,0.5-1.5,0.9-2.3,1.5C35.7,15.6,34.9,16.4,35.2,17.1C35.1,17.1,35.2,17.1,35.2,17.1L35.2,17.1z"/>
	</g>
	<g>
		<path class="st6" d="M41.6,15.3c0.5,0.5,1,1.3,1.1,2c0.1,0.7-0.2,1.4-0.5,2c-0.3,0.7-0.8,1.1-1.4,1.5c-0.8,0.4-1.3,0.8-1.9,1.5
			c-1,1.3-2.2,2.3-3.7,2.9c-0.7,0.3-1.5,0.5-2.3,0.8c-0.7,0.3-1.2,1-1.9,1.4c-1.3,0.7-2.9,0.9-4.3,1.5c-0.8,0.3-1.4,0.9-2.2,1.3
			c-0.8,0.4-1.8,0.5-2.7,0.5c-1,0.1-2,0.1-2.9,0.1c-0.9,0-1.9-0.1-2.8-0.1c-0.9,0-1.6,0.5-2.4,0.8c-0.8,0.2-1.5,0.1-2.3-0.2
			c-0.9-0.3-1.7-0.6-2.6-0.9c-0.9-0.3-1.8-0.2-2.7-0.3c-0.9-0.1-1.5-0.5-1.8-1.4C4,28,4.1,27.2,4,26.4c0-0.4-0.6-0.5-0.7-0.1
			c-0.2,1.3-0.2,3.1,1,4.1C5,30.9,5.9,31,6.7,31c0.9,0,1.7,0.2,2.6,0.5c1.6,0.5,3.3,1.3,4.9,0.6c0.4-0.2,0.8-0.4,1.3-0.5
			c0.5-0.1,1-0.1,1.5,0c1.1,0,2.2,0,3.3,0c1,0,2.1,0,3.1-0.2c1-0.1,1.8-0.5,2.6-1c0.7-0.5,1.5-0.8,2.3-1.1c0.8-0.2,1.6-0.4,2.4-0.7
			c0.8-0.3,1.4-0.8,2-1.3c0.7-0.6,1.6-0.7,2.4-1.1c1.6-0.7,3-1.7,4.1-3.1c0.3-0.4,0.6-0.8,1-1.1c0.4-0.3,0.9-0.4,1.3-0.7
			c0.7-0.4,1.2-1.2,1.5-1.9c0.3-0.7,0.6-1.5,0.4-2.4c-0.2-0.9-0.7-1.7-1.5-2.1C41.7,14.8,41.4,15.1,41.6,15.3L41.6,15.3z"/>
	</g>
	<ellipse transform="matrix(0.1061 -0.9944 0.9944 0.1061 -2.521 27.9427)" class="st10" cx="14.3" cy="15.4" rx="1" ry="1.6"/>
	<ellipse transform="matrix(0.6325 -0.7745 0.7745 0.6325 2.4961 25.0125)" class="st10" cx="27.6" cy="9.9" rx="1.6" ry="1"/>
	<g>
		<ellipse class="st2" cx="22.5" cy="8.1" rx="2.9" ry="2.9"/>
		<ellipse class="st5" cx="23.4" cy="7.3" rx="1" ry="1"/>
		<ellipse class="st5" cx="22.7" cy="9.8" rx="0.6" ry="0.5"/>
	</g>
	<g>
		<ellipse class="st2" cx="16.2" cy="10.6" rx="2.9" ry="2.9"/>
		<ellipse class="st5" cx="17.1" cy="9.8" rx="1" ry="1"/>
		<ellipse class="st5" cx="16.4" cy="12.3" rx="0.6" ry="0.5"/>
	</g>
	<g>
		<path class="st6" d="M38.9,12.1c0.1,0.1,0.2-0.1,0.3-0.2c0.1-0.1,0.1-0.3,0.1-0.4c0-0.2,0-0.3,0.1-0.5c0-0.2,0-0.4-0.2-0.5
			c-0.1,0-0.1,0-0.2-0.1c0,0,0,0,0,0c0,0,0-0.1,0-0.1c0,0-0.1-0.1,0-0.1c0,0-0.1-0.1-0.1-0.1c0,0-0.1,0-0.1,0
			c-0.1,0.1-0.1,0.2,0,0.3c0,0.1,0.1,0.1,0.2,0.2c0.1,0,0.1,0.1,0.2,0.1c0.1,0,0.1,0.1,0.1,0.2c0,0.1,0,0.1,0,0.2
			c0,0.2,0,0.3-0.1,0.5c0,0.1-0.1,0.1-0.1,0.2C38.9,12,38.8,12.1,38.9,12.1L38.9,12.1z"/>
	</g>
</g>
<g>
	<path class="st5" d="M47.8,24.1c-0.2,0-0.4-0.1-0.6-0.2c-0.1-0.1-0.2-0.2-0.2-0.4v-9.1c0-0.1,0.1-0.3,0.2-0.4
		c0.1-0.1,0.3-0.2,0.6-0.2h2.5c0.6,0,1.2,0.1,1.7,0.3s0.9,0.6,1.2,1c0.3,0.5,0.4,1.1,0.4,1.9v3.8c0,0.8-0.1,1.4-0.4,1.9
		s-0.7,0.8-1.2,1s-1.1,0.3-1.7,0.3H47.8z M48.8,22.5h1.5c0.5,0,0.8-0.1,1.1-0.4c0.3-0.3,0.4-0.7,0.4-1.2V17c0-0.5-0.1-0.9-0.4-1.2
		c-0.3-0.3-0.6-0.4-1.1-0.4h-1.5V22.5z"/>
	<path class="st5" d="M58,24.2c-0.6,0-1.1-0.1-1.5-0.4c-0.5-0.3-0.8-0.6-1.1-1c-0.3-0.4-0.4-0.9-0.4-1.4V18c0-0.1,0.1-0.3,0.3-0.4
		c0.2-0.1,0.4-0.2,0.6-0.2c0.2,0,0.5,0.1,0.6,0.2c0.2,0.1,0.3,0.3,0.3,0.4v3.4c0,0.2,0.1,0.4,0.2,0.6c0.1,0.2,0.3,0.3,0.4,0.5
		c0.2,0.1,0.4,0.2,0.6,0.2c0.2,0,0.4-0.1,0.6-0.2c0.2-0.1,0.3-0.3,0.4-0.5c0.1-0.2,0.2-0.4,0.2-0.6V18c0-0.1,0.1-0.3,0.3-0.4
		c0.2-0.1,0.4-0.2,0.6-0.2c0.3,0,0.5,0.1,0.7,0.2c0.2,0.1,0.3,0.2,0.3,0.4v3.4c0,0.5-0.1,1-0.4,1.4c-0.3,0.4-0.6,0.8-1.1,1
		C59.1,24.1,58.6,24.2,58,24.2z"/>
	<path class="st5" d="M63.5,24.1c-0.3,0-0.5-0.1-0.6-0.2s-0.3-0.3-0.3-0.4v-9.4c0-0.2,0.1-0.3,0.3-0.4s0.4-0.2,0.6-0.2
		c0.3,0,0.5,0.1,0.6,0.2c0.2,0.1,0.3,0.2,0.3,0.4v9.4c0,0.1-0.1,0.3-0.3,0.4C63.9,24,63.7,24.1,63.5,24.1z"/>
	<path class="st5" d="M66.2,24.1c-0.2,0-0.4-0.1-0.5-0.2c-0.1-0.1-0.1-0.3-0.1-0.4c0-0.1,0-0.3,0.1-0.4s0.1-0.2,0.2-0.3l2.7-3.8
		h-2.4c-0.1,0-0.3-0.1-0.4-0.2c-0.1-0.1-0.2-0.3-0.2-0.5c0-0.2,0.1-0.4,0.2-0.5s0.2-0.2,0.4-0.2h4.1c0.2,0,0.3,0.1,0.4,0.2
		s0.2,0.3,0.2,0.5c0,0.3-0.1,0.5-0.3,0.8l-2.8,3.8h2.7c0.1,0,0.3,0.1,0.4,0.2s0.2,0.3,0.2,0.5c0,0.2,0,0.4-0.1,0.5
		c-0.1,0.1-0.2,0.2-0.4,0.2H66.2z"/>
	<path class="st5" d="M74.8,24.2c-0.5,0-1-0.1-1.5-0.4c-0.5-0.3-0.8-0.6-1.1-1.1c-0.3-0.4-0.4-0.9-0.4-1.4v-1.1c0-0.5,0.1-1,0.4-1.4
		c0.3-0.4,0.6-0.8,1.1-1c0.5-0.3,1-0.4,1.5-0.4s1.1,0.1,1.5,0.4c0.5,0.3,0.8,0.6,1.1,1c0.3,0.4,0.4,0.9,0.4,1.4v1.1
		c0,0.5-0.1,1-0.4,1.4s-0.7,0.8-1.1,1.1C75.8,24.1,75.3,24.2,74.8,24.2z M74.8,22.6c0.2,0,0.4-0.1,0.6-0.2s0.3-0.3,0.4-0.5
		c0.1-0.2,0.2-0.4,0.2-0.6v-1.1c0-0.2-0.1-0.4-0.2-0.6c-0.1-0.2-0.3-0.3-0.4-0.5c-0.2-0.1-0.4-0.2-0.6-0.2c-0.2,0-0.4,0.1-0.6,0.2
		c-0.2,0.1-0.3,0.3-0.4,0.5c-0.1,0.2-0.2,0.4-0.2,0.6v1.1c0,0.2,0.1,0.4,0.2,0.6c0.1,0.2,0.3,0.4,0.4,0.5S74.6,22.6,74.8,22.6z"/>
	<path class="st5" d="M79.9,24.1c-0.3,0-0.5-0.1-0.6-0.2s-0.3-0.3-0.3-0.4V18c0-0.2,0.1-0.3,0.3-0.4s0.4-0.2,0.6-0.2
		c0.2,0,0.4,0.1,0.6,0.2c0.2,0.1,0.2,0.2,0.2,0.4v0.6c0.1-0.2,0.2-0.4,0.4-0.6c0.2-0.2,0.4-0.3,0.6-0.5c0.2-0.1,0.5-0.2,0.7-0.2h0.4
		c0.2,0,0.3,0.1,0.5,0.2s0.2,0.3,0.2,0.6c0,0.2-0.1,0.4-0.2,0.6s-0.3,0.2-0.5,0.2h-0.4c-0.3,0-0.5,0.1-0.8,0.3
		c-0.2,0.2-0.5,0.4-0.6,0.7c-0.2,0.3-0.2,0.7-0.2,1.1v2.5c0,0.1-0.1,0.3-0.3,0.4C80.4,24,80.2,24.1,79.9,24.1z"/>
	<path class="st5" d="M88.3,24.1c-0.2,0-0.4,0-0.6-0.1c-0.2-0.1-0.3-0.2-0.3-0.4v-9.1c0-0.2,0.1-0.3,0.3-0.4s0.4-0.1,0.6-0.1
		c0.2,0,0.4,0,0.6,0.1s0.3,0.2,0.3,0.4v3.8l3-4.1c0.1-0.2,0.3-0.3,0.5-0.3c0.2,0,0.3,0,0.5,0.1c0.2,0.1,0.3,0.2,0.4,0.3
		c0.1,0.1,0.2,0.3,0.2,0.4c0,0,0,0.1,0,0.2c0,0.1-0.1,0.1-0.1,0.2l-2.5,3.1l3.1,4.6c0.1,0.1,0.1,0.2,0.1,0.3c0,0.1-0.1,0.3-0.2,0.4
		c-0.1,0.1-0.2,0.3-0.4,0.3c-0.2,0.1-0.3,0.1-0.5,0.1c-0.1,0-0.2,0-0.4-0.1c-0.1-0.1-0.2-0.1-0.3-0.3l-2.6-4l-0.8,1v2.7
		c0,0.2-0.1,0.3-0.3,0.4C88.7,24,88.5,24.1,88.3,24.1z"/>
	<path class="st5" d="M96,15.9c-0.3,0-0.5-0.1-0.7-0.3C95.1,15.5,95,15.3,95,15c0-0.2,0.1-0.5,0.3-0.6c0.2-0.2,0.4-0.3,0.7-0.3
		c0.3,0,0.5,0.1,0.7,0.3s0.3,0.4,0.3,0.6c0,0.2-0.1,0.4-0.3,0.6C96.5,15.8,96.2,15.9,96,15.9z M96,24.1c-0.3,0-0.5-0.1-0.6-0.2
		s-0.3-0.3-0.3-0.4V18c0-0.2,0.1-0.3,0.3-0.4s0.4-0.2,0.6-0.2c0.3,0,0.5,0.1,0.6,0.2c0.2,0.1,0.3,0.2,0.3,0.4v5.5
		c0,0.1-0.1,0.3-0.3,0.4C96.4,24,96.2,24.1,96,24.1z"/>
	<path class="st5" d="M99.2,24.1c-0.3,0-0.5-0.1-0.6-0.2s-0.3-0.3-0.3-0.4V18c0-0.2,0.1-0.3,0.3-0.4s0.4-0.2,0.6-0.2
		c0.2,0,0.4,0.1,0.6,0.2s0.2,0.2,0.2,0.4v0.4c0.2-0.3,0.4-0.5,0.7-0.7c0.3-0.2,0.7-0.3,1.2-0.3c0.4,0,0.8,0.1,1.1,0.4
		c0.3,0.3,0.5,0.6,0.7,1c0.2-0.5,0.6-0.8,0.9-1.1s0.8-0.3,1.2-0.3c0.4,0,0.8,0.1,1.2,0.3c0.4,0.2,0.7,0.5,0.9,1
		c0.2,0.4,0.4,0.9,0.4,1.5v3.3c0,0.1-0.1,0.3-0.3,0.4c-0.2,0.1-0.4,0.2-0.6,0.2c-0.2,0-0.5-0.1-0.6-0.2c-0.2-0.1-0.3-0.3-0.3-0.4
		v-3.3c0-0.3-0.1-0.5-0.2-0.7s-0.2-0.3-0.4-0.4c-0.2-0.1-0.4-0.1-0.5-0.1s-0.4,0-0.5,0.1c-0.2,0.1-0.3,0.2-0.4,0.4
		c-0.1,0.2-0.2,0.4-0.2,0.7v3.3c0,0.2-0.1,0.3-0.3,0.4c-0.2,0.1-0.4,0.1-0.6,0.1c-0.2,0-0.4,0-0.6-0.1c-0.2-0.1-0.3-0.2-0.3-0.4
		v-3.3c0-0.3-0.1-0.5-0.2-0.7c-0.1-0.2-0.2-0.3-0.4-0.4c-0.2-0.1-0.4-0.2-0.6-0.2c-0.2,0-0.4,0-0.5,0.1c-0.2,0.1-0.3,0.2-0.4,0.4
		s-0.2,0.4-0.2,0.7v3.3c0,0.1-0.1,0.3-0.3,0.4C99.7,24,99.5,24.1,99.2,24.1z"/>
	<path class="st5" d="M112.8,24.2c-0.7,0-1.2-0.1-1.8-0.4c-0.5-0.2-0.9-0.6-1.2-1c-0.3-0.4-0.4-0.9-0.4-1.5v-1.2
		c0-0.5,0.1-1,0.4-1.4c0.3-0.4,0.6-0.8,1.1-1s1-0.4,1.5-0.4c0.5,0,1,0.1,1.4,0.3c0.4,0.2,0.8,0.5,1.1,0.9c0.3,0.4,0.4,0.8,0.4,1.4
		c0,0.4-0.1,0.7-0.2,0.9s-0.3,0.3-0.5,0.3c-0.2,0-0.4,0.1-0.6,0.1h-2.8v0.2c0,0.4,0.2,0.7,0.5,1c0.3,0.2,0.7,0.4,1.2,0.4
		c0.3,0,0.6,0,0.8-0.1c0.2-0.1,0.4-0.2,0.5-0.3s0.3-0.1,0.4-0.1c0.1,0,0.3,0,0.4,0.1c0.1,0.1,0.2,0.2,0.2,0.3s0.1,0.2,0.1,0.3
		c0,0.2-0.1,0.3-0.3,0.5c-0.2,0.2-0.5,0.3-0.9,0.5C113.7,24.1,113.3,24.2,112.8,24.2z M111.2,20.1h2c0.2,0,0.3,0,0.3-0.1
		c0.1-0.1,0.1-0.2,0.1-0.3c0-0.2-0.1-0.4-0.2-0.6s-0.3-0.3-0.4-0.4c-0.2-0.1-0.4-0.1-0.6-0.1c-0.2,0-0.4,0-0.6,0.1
		c-0.2,0.1-0.3,0.2-0.5,0.4c-0.1,0.2-0.2,0.4-0.2,0.6V20.1z"/>
	<path class="st5" d="M116.7,27.2c-0.2,0-0.4,0-0.6-0.1c-0.2-0.1-0.2-0.3-0.2-0.6c0-0.2,0-0.4,0.1-0.5s0.2-0.2,0.4-0.2
		c0.2,0,0.3,0,0.6-0.1c0.2-0.1,0.4-0.2,0.6-0.3s0.4-0.4,0.5-0.6s0.2-0.6,0.3-1l-2.4-5.2c0-0.1-0.1-0.2-0.1-0.2
		c0-0.2,0.1-0.3,0.2-0.4c0.1-0.1,0.3-0.2,0.5-0.3s0.4-0.1,0.5-0.1c0.1,0,0.2,0,0.3,0.1s0.2,0.1,0.2,0.2l1.7,4.2l1.3-4.2
		c0-0.1,0.1-0.2,0.2-0.2c0.1,0,0.2-0.1,0.3-0.1c0.1,0,0.3,0,0.5,0.1s0.4,0.2,0.5,0.3c0.1,0.1,0.2,0.3,0.2,0.5c0,0.1,0,0.2,0,0.2
		l-2,5.2c-0.2,0.4-0.3,0.8-0.5,1.3c-0.2,0.4-0.4,0.8-0.6,1.1c-0.2,0.3-0.6,0.6-0.9,0.8C117.8,27.1,117.3,27.2,116.7,27.2z"/>
</g>
</svg>
